HIERARCHY
ROOT Hips
{
  OFFSET 71.7574 47.5266 353.468
  CHANNELS 6 Xposition Yposition Zposition Zrotation Xrotation Yrotation
  JOINT Spine
  {
    OFFSET 0 0 0
    CHANNELS 3 Zrotation Xrotation Yrotation
    JOINT Spine1
    {
      OFFSET 19 0 0
      CHANNELS 3 Zrotation Xrotation Yrotation
      JOINT Neck
      {
        OFFSET 22.5 0.6 0
        CHANNELS 3 Zrotation Xrotation Yrotation
        JOINT Head
        {
          OFFSET 14 0.0308777 0
          CHANNELS 3 Zrotation Xrotation Yrotation
          End Site
          {
            OFFSET 17 0 0
          }
        }
      }
      JOINT LeftShoulder
      {
        OFFSET 19.8 3.7 4.3
        CHANNELS 3 Zrotation Xrotation Yrotation
        JOINT LeftArm
        {
          OFFSET 8 0 0
          CHANNELS 3 Zrotation Xrotation Yrotation
          JOINT LeftForeArm
          {
            OFFSET 15.2 0 0
            CHANNELS 3 Zrotation Xrotation Yrotation
            JOINT LeftHand
            {
              OFFSET 17.8 0 0
              CHANNELS 3 Zrotation Xrotation Yrotation
              End Site
              {
                OFFSET 7.2 0 0
              }
            }
          }
        }
      }
      JOINT RightShoulder
      {
        OFFSET 19.8 3.7 -4.3
        CHANNELS 3 Zrotation Xrotation Yrotation
        JOINT RightArm
        {
          OFFSET 8 0 0.151654
          CHANNELS 3 Zrotation Xrotation Yrotation
          JOINT RightForeArm
          {
            OFFSET 15.2 0 0
            CHANNELS 3 Zrotation Xrotation Yrotation
            JOINT RightHand
            {
              OFFSET 17.8 0 0
              CHANNELS 3 Zrotation Xrotation Yrotation
              End Site
              {
                OFFSET 7.2 0 0
              }
            }
          }
        }
      }
    }
  }
  JOINT LeftUpLeg
  {
    OFFSET 5.98425 -7.666 4.78879
    CHANNELS 3 Zrotation Xrotation Yrotation
    JOINT LeftLeg
    {
      OFFSET 16 0 0
      CHANNELS 3 Zrotation Xrotation Yrotation
      JOINT LeftFoot
      {
        OFFSET 18 0 0
        CHANNELS 3 Zrotation Xrotation Yrotation
        End Site
        {
          OFFSET 0 -10.8 0
        }
      }
    }
  }
  JOINT RightUpLeg
  {
    OFFSET 5.98425 -7.66598 -4.78879
    CHANNELS 3 Zrotation Xrotation Yrotation
    JOINT RightLeg
    {
      OFFSET 16 0 0
      CHANNELS 3 Zrotation Xrotation Yrotation
      JOINT RightFoot
      {
        OFFSET 18 0 0
        CHANNELS 3 Zrotation Xrotation Yrotation
        End Site
        {
          OFFSET 0 -10.8 0
        }
      }
    }
  }
  JOINT Tail
  {
    OFFSET 6.83696 -0.722574 0
    CHANNELS 3 Zrotation Xrotation Yrotation
    JOINT Tail1
    {
      OFFSET 12 0 0
      CHANNELS 3 Zrotation Xrotation Yrotation
      End Site
      {
        OFFSET 12 0 0
      }
    }
  }
}
MOTION
Frames:	12
Frame Time:	0.0166667
-0.646723 46.5867 -383.032 -4.68225 -3.84991 111.828 -164.614 0.139554 -19.8867 -18.6025 -2.79723 21.4137 -8.5829 -19.7884 27.5158 -94.4838 64.8565 108.23 -111.789 -38.8155 -137.524 129.628 -46.7952 -132.401 -63.3786 -64.2989 18.2742 37.1022 -3.37514 -41.8083 77.5324 -24.6088 38.4938 38.2214 -38.6948 -50.2176 -62.5049 -23.4633 7.18163 -13.9429 -1.27616 6.62975 -131.659 -5.58846 -32.1949 93.1388 16.2871 8.92274 38.0354 -3.22255 -6.22944 -121.774 0.949664 -11.5653 69.4325 -32.426 -2.50682 60.6958 4.6531 1.75188 -39.153 58.724 -3.94026 5.71263 -65.6762 6.19119 
-0.244144 46.6772 -382.479 -3.98209 -3.59073 110.848 -164.304 -0.545741 -20.9003 -19.0649 -3.65982 22.3828 -8.8471 -19.493 27.2019 -94.0903 65.1262 108.373 -112.324 -39.4027 -137.776 132.978 -42.7874 -129.375 -62.5746 -65.1972 20.8601 34.9849 -2.74705 -43.0314 77.8859 -24.0095 38.0921 37.9672 -39.4493 -49.4411 -61.9564 -23.2002 6.64394 -13.9742 -1.1709 6.34174 -134.155 -4.53496 -33.4149 90.6515 16.6491 10.6208 37.4405 -3.32924 -6.39209 -120.944 -1.05881 -13.6601 71.0947 -30.4173 0.397013 59.4714 4.93578 2.05257 -36.9751 57.5596 -6.34114 4.84203 -61.7404 4.73109 
0.152487 46.7669 -381.907 -3.45025 -3.20542 110.102 -164.265 -1.11109 -21.5779 -19.3905 -4.46666 23.2346 -8.79149 -19.5961 27.2555 -94.1406 65.0036 108.25 -112.667 -39.688 -138.091 134.758 -37.8646 -126.755 -65.1981 -62.1097 19.3801 32.5472 -1.67047 -41.0306 78.1855 -23.4408 37.5247 37.817 -40.098 -48.9383 -61.2128 -22.8023 6.36268 -13.4667 -0.8535 5.35107 -136.12 -3.21713 -33.9442 86.7596 17.4704 12.6891 37.4205 -3.60537 -6.79708 -120.419 -2.58229 -14.3585 72.0866 -30.1098 1.8666 59.2451 5.07744 2.15134 -34.9135 56.7289 -9.09337 4.07665 -58.0952 3.35342 
0.580442 46.8178 -381.31 -2.99425 -2.8926 109.627 -164.722 -1.54186 -22.3886 -18.7099 -5.28431 24.9036 -9.55084 -19.3074 26.4637 -94.3091 64.5324 109.125 -112.998 -40.118 -138.118 136.19 -33.0004 -124.624 -69.8838 -52.8773 15.0951 29.3359 0.0662492 -32.7046 78.0204 -23.419 36.6976 37.7095 -40.4307 -48.6569 -60.4054 -22.7252 6.27911 -13.8059 -0.86115 5.39598 -137.613 -1.75262 -33.8376 82.4559 17.758 14.6643 38.62 -3.90554 -7.20602 -119.69 -3.594 -13.9194 72.3248 -30.2638 2.18752 59.4116 5.07195 2.11016 -32.8041 56.1922 -12.0543 3.50584 -54.8194 2.19113 
1.04408 46.7699 -380.661 -3.08231 -2.09254 108.937 -166.004 -1.80574 -23.2927 -18.061 -5.97202 26.2818 -9.60157 -19.2342 26.4514 -94.7909 64.2991 109.435 -113.154 -40.2213 -138.303 138.324 -29.3307 -123.59 -72.2027 -39.8858 11.7297 25.0968 1.37021 -20.7786 78.3339 -22.7459 35.7614 36.7584 -41.1466 -48.1462 -59.3755 -21.6513 5.85665 -14.0251 -1.36056 7.18467 -139.528 0.0721967 -33.4928 78.0049 17.8533 16.5919 41.0821 -4.26317 -7.61436 -119.634 -4.55091 -13.8512 72.5223 -30.6107 2.59664 59.3969 5.0637 2.09481 -31.6815 55.4177 -14.7373 2.91224 -51.8258 1.0078 
1.58109 46.7262 -380.03 -3.10558 -1.86022 108.517 -166.583 -2.06953 -23.8581 -17.5394 -6.60381 27.6252 -9.81697 -18.7734 26.163 -95.4607 64.1789 110.231 -113.088 -40.1412 -138.288 139.016 -25.0912 -122.45 -71.3668 -25.2833 9.87564 17.1243 1.65122 -9.0788 78.6667 -22.1142 35.0074 37.0808 -41.2598 -47.9587 -58.6468 -22.3788 5.86422 -14.5347 -0.879942 5.56156 -140.779 2.1449 -32.5625 74.1409 18.4569 17.8825 43.8145 -4.75601 -8.17018 -118.9 -5.38006 -13.8601 72.761 -30.71 2.97228 59.3541 5.02684 2.05673 -30.1309 54.859 -17.3383 2.60076 -49.2487 0.0402392 
2.11346 46.7124 -379.446 -3.17648 -1.94568 108.228 -166.931 -2.24708 -24.2814 -16.8115 -7.09059 29.0457 -10.3195 -18.2327 25.8546 -95.5078 64.4243 110.95 -113.018 -40.0789 -138.234 140.347 -21.2469 -121.084 -67.9488 -12.6697 8.24174 7.00277 0.821175 -4.68592 78.9501 -21.5446 34.1981 36.3868 -41.6803 -47.7291 -57.8246 -22.2344 5.54722 -14.9041 -0.904085 5.74587 -141.424 3.63363 -31.3273 70.7531 19.1609 18.4108 45.7355 -5.16635 -8.59488 -117.739 -5.8122 -13.4048 72.5858 -31.0503 2.9061 59.4968 5.03925 2.04555 -28.6048 54.4212 -19.5834 2.4519 -47.1364 -0.806531 
2.61487 46.6491 -378.906 -3.40482 -2.29294 107.626 -167.053 -2.42295 -25.1894 -16.0094 -7.52185 30.8781 -10.476 -18.4402 25.6429 -96.5835 63.2871 111.518 -112.669 -39.9497 -137.636 141.069 -16.692 -118.552 -62.118 -2.47227 5.62649 -1.07934 0.108327 -3.78898 78.888 -21.3932 33.2881 36.1576 -41.9475 -47.8568 -57.2241 -22.3139 5.45358 -15.1321 -0.802989 5.41086 -141.894 4.48212 -30.4957 68.9643 18.6362 18.5058 47.6476 -5.30754 -8.66347 -116.436 -6.33633 -13.3148 72.4538 -31.4819 2.91662 59.4816 5.00163 2.02893 -27.6592 53.9054 -20.9286 2.43193 -45.5714 -1.52802 
3.15715 46.5794 -378.422 -3.98858 -2.92555 106.884 -167.062 -2.56454 -26.2319 -15.1967 -7.83193 32.7082 -10.6312 -18.3863 25.4537 -97.9065 62.5327 112.114 -112.525 -40.0022 -137.201 142.428 -13.2968 -116.904 -57.1176 -2.87937 3.26941 -1.59637 0.872824 -7.35005 79.2554 -20.7331 32.4417 35.3103 -42.2707 -47.837 -56.8248 -23.0089 5.23132 -15.2081 -0.481878 4.55572 -142.159 5.04533 -29.0581 68.9651 17.4222 17.2289 48.4472 -5.06745 -8.34238 -115.06 -6.6046 -13.3336 72.279 -32.2879 2.81768 59.6141 5.02752 2.05309 -26.9954 53.1427 -21.6612 2.5502 -44.5354 -2.11595 
3.7106 46.4685 -377.977 -4.86589 -3.71453 105.956 -167.354 -2.58601 -27.4408 -13.8772 -7.84545 34.4982 -10.6171 -18.2905 25.724 -99.7255 62.033 112.633 -112.658 -40.3975 -136.831 141.578 -11.2646 -116.278 -53.6728 2.2408 1.65473 -3.30796 -0.0853084 -3.31468 79.7112 -20.1439 32.3116 33.8764 -42.0597 -49.5336 -55.9034 -23.3408 5.22729 -15.6964 -0.288099 3.80779 -141.553 4.7853 -28.7331 68.7294 16.838 16.7881 48.6085 -4.91315 -8.12841 -113.651 -6.66262 -13.4241 71.9437 -33.4499 2.57594 60.1268 5.04156 2.03838 -26.8406 52.3813 -21.7466 2.89307 -44.2066 -2.45404 
4.28126 46.3676 -377.559 -5.8754 -4.54485 105.007 -167.84 -2.45423 -28.5924 -12.2167 -7.63058 36.34 -11.0505 -18.2455 25.5887 -100.545 61.3862 113.191 -112.724 -40.7906 -136.315 140.979 -11.0741 -116.266 -50.3106 4.36241 -0.721859 -3.23809 -0.227888 -2.91759 79.7918 -19.912 31.7195 30.5666 -43.4797 -49.476 -55.8041 -22.5247 3.50548 -14.8033 -0.426413 4.63093 -140.458 4.49781 -28.7261 68.0737 17.6424 16.8841 49.8736 -5.12009 -8.29397 -112.54 -6.6433 -13.5597 72.0596 -34.3622 2.37061 60.7101 5.09793 2.03294 -26.9588 51.6886 -21.4797 3.22115 -44.481 -2.57441 
4.8895 46.2463 -377.167 -7.1736 -5.30342 104.279 -168.475 -2.04678 -29.182 -10.4754 -7.15612 37.9653 -11.3877 -18.5335 25.57 -101.761 60.9199 113.164 -112.587 -40.9986 -135.641 142.244 -12.7484 -116.867 -47.0522 4.92772 -3.27995 -3.17249 0.346811 -5.92239 79.6565 -19.8678 30.7888 28.2716 -44.3169 -49.6111 -55.767 -21.9292 2.29552 -14.2142 -0.483821 5.02539 -139.446 4.02945 -28.9948 69.2397 15.9386 16.5187 47.0771 -4.77537 -8.02227 -111.381 -6.46216 -13.9027 71.6799 -35.5445 2.15779 61.3922 5.09959 1.98352 -27.199 51.1758 -21.3192 3.5248 -45.4374 -2.52652 
